 http://img339.imageshack.us/img339/5900/mv5bmtyynzuwmdg4mf5bml5w.jpg

Complete name :SECONDS APART (2011) DVDRip [MKV 6ch AC3][RoB]PR3DATOR RG
Format : Matroska
Format version : Version 2
File size : 1.80 GiB
Duration : 1h 29mn
Overall bit rate : 2 886 Kbps
Writing application : Lavf51.12.1
Writing library : Lavf51.12.1

Video
ID : 1
Format : AVC
Format/Info : Advanced Video Codec
Format profile : Baseline@L3.0
Format settings, CABAC : No
Format settings, ReFrames : 5 frames
Format settings, GOP : M=1, N=12
Codec ID : V_MPEG4/ISO/AVC
Duration : 1h 29mn
Bit rate : 2 637 Kbps
Width : 720 pixels
Height : 400 pixels
Display aspect ratio : 16:9
Frame rate mode : Variable
Frame rate : 23.976 fps
Color space : YUV
Chroma subsampling : 4:2:0
Bit depth : 8 bits
Scan type : Progressive
Bits/(Pixel*Frame) : 0.382
Stream size : 1.64 GiB (91%)
Language : English

Audio
ID : 2
Format : AC-3
Format/Info : Audio Coding 3
Mode extension : CM (complete main)
Codec ID : A_AC3
Duration : 1h 29mn
Bit rate mode : Constant
Bit rate : 192 Kbps
Channel(s) : 6 channels
Channel positions : Front: L C R, Side: L R, LFE
Sampling rate : 44.1 KHz
Bit depth : 16 bits
Compression mode : Lossy
Stream size : 122 MiB (7%)
Language : English